<svg width="201" height="76" viewBox="0 0 201 76" fill="none" xmlns="http://www.w3.org/2000/svg">
<g id="Frame" clip-path="url(#clip0)">
<g id="Group">
<g id="Group_2">
<g id="Group_3">
<g id="Group_4">
<g id="Group_5">
<path id="Vector" d="M17.038 18.9092C22.2125 18.9092 26.4072 14.6762 26.4072 9.45461C26.4072 4.23297 22.2125 0 17.038 0C11.8636 0 7.66895 4.23297 7.66895 9.45461C7.66895 14.6762 11.8636 18.9092 17.038 18.9092Z" fill="white"/>
</g>
</g>
<g id="Group_6">
<g id="Group_7">
<path id="Vector_2" d="M17.038 28.3971C22.9408 28.3971 27.7409 33.241 27.7409 39.1977C27.7409 45.1543 22.9408 49.9982 17.038 49.9982C11.1353 49.9982 6.33521 45.1543 6.33521 39.1977C6.33521 33.241 11.1353 28.3971 17.038 28.3971ZM17.038 22.0041C7.62932 22.0041 0 29.6997 0 39.1977C0 48.6922 7.62932 56.3912 17.038 56.3912C26.4468 56.3912 34.0761 48.6922 34.0761 39.1977C34.0761 29.6997 26.4468 22.0041 17.038 22.0041Z" fill="white"/>
</g>
</g>
</g>
<g id="Group_8">
<g id="Group_9">
<g id="Group_10">
<path id="Vector_3" d="M51.3156 19.0858H61.4935C67.6339 19.0858 71.3842 22.164 71.3842 27.3611C71.3842 30.0629 70.1891 32.2283 67.8386 33.5575C70.7635 34.8468 72.3317 37.2188 72.3317 40.6701C72.3317 46.2836 68.3338 49.4451 62.1934 49.4451H51.3156V19.0858ZM55.8086 23.2034V31.7286H61.6618C65.2867 31.7286 66.8944 29.8996 66.8944 27.3611C66.8944 24.6992 65.082 23.2034 61.4968 23.2034H55.8086ZM55.8086 35.9295V45.2875H62.1967C65.7819 45.2875 67.8419 43.4152 67.8419 40.5869C67.8419 37.7185 66.1516 35.9295 61.9887 35.9295H55.8086Z" fill="white"/>
</g>
</g>
<g id="Group_11">
<g id="Group_12">
<path id="Vector_4" d="M74.6062 39.131C74.6062 33.0178 79.2214 28.2372 85.2793 28.2372C91.3768 28.2372 95.9128 32.728 95.9128 38.9245V40.4636H78.8121C79.3073 43.6651 81.6545 45.9938 85.2826 45.9938C88.125 45.9938 90.0629 44.6212 90.8453 42.4591H95.586C93.9783 47.0765 90.5581 49.8616 85.243 49.8616C78.7262 49.8582 74.6062 44.9944 74.6062 39.131ZM79.096 36.7191H91.4165C90.634 33.7674 88.4486 32.185 85.3189 32.185C82.3115 32.185 79.9609 34.0573 79.096 36.7191Z" fill="white"/>
</g>
</g>
<g id="Group_13">
<g id="Group_14">
<path id="Vector_5" d="M97.0122 28.6503H100.515V23.7431L104.965 21.2912V28.6503H109.333V32.6414H104.965V40.9167C104.965 44.7012 105.543 45.2409 109.333 45.2409V49.4418H108.672C102.41 49.4418 100.512 47.4463 100.512 40.96V32.6447H97.0089V28.6503H97.0122Z" fill="white"/>
</g>
</g>
<g id="Group_15">
<g id="Group_16">
<path id="Vector_6" d="M110.614 39.0477C110.614 32.9346 115.354 28.2339 121.287 28.2339C127.223 28.2339 131.96 32.9346 131.96 39.0477C131.96 45.0776 127.219 49.8616 121.287 49.8616C115.354 49.8582 110.614 45.0776 110.614 39.0477ZM127.635 39.0477C127.635 35.3865 124.793 32.3949 121.29 32.3949C117.662 32.3949 114.985 35.3898 114.985 39.0477C114.985 42.7057 117.662 45.7006 121.29 45.7006C124.789 45.7006 127.635 42.7057 127.635 39.0477Z" fill="white"/>
</g>
</g>
<g id="Group_17">
<g id="Group_18">
<path id="Vector_7" d="M134.891 28.6503H139.259V31.3521C140.702 29.3966 142.844 28.2339 145.604 28.2339C150.837 28.2339 153.97 31.602 153.97 37.2987V49.4418H149.519V37.6719C149.519 34.2205 147.829 32.0984 144.534 32.0984C141.567 32.0984 139.302 34.3438 139.302 38.005V49.4418H134.891V28.6503Z" fill="white"/>
</g>
</g>
<g id="Group_19">
<g id="Group_20">
<path id="Vector_8" d="M162.124 46.6167V49.4451H157.796V19.0858H162.164V31.4354C163.689 29.4799 166.201 28.2339 169.004 28.2339C174.401 28.2339 179.264 32.3915 179.264 39.0477C179.264 45.6606 174.279 49.8616 169.043 49.8616C166.244 49.8582 163.649 48.6523 162.124 46.6167ZM174.9 39.0044C174.9 35.2199 172.058 32.2683 168.39 32.2683C164.682 32.2683 161.919 35.3465 161.919 39.0044C161.919 42.7456 164.679 45.7839 168.39 45.7839C172.054 45.7839 174.9 42.8322 174.9 39.0044Z" fill="white"/>
</g>
</g>
<g id="Group_21">
<g id="Group_22">
<path id="Vector_9" d="M184.256 19.4589C186.029 19.4589 187.224 20.6649 187.224 22.4539C187.224 24.2428 186.029 25.4488 184.256 25.4488C182.483 25.4488 181.288 24.2428 181.288 22.4539C181.288 20.6649 182.483 19.4589 184.256 19.4589ZM182.028 28.6503H186.478V49.4418H182.028V28.6503Z" fill="white"/>
</g>
</g>
</g>
<g id="Group_23">
<g id="Group_24">
<g id="Group_25">
<path id="Vector_10" d="M201 46.0238C201 48.1725 199.349 49.7283 197.329 49.7283C195.309 49.7283 193.658 48.1725 193.658 46.0238C193.658 43.8583 195.309 42.3026 197.329 42.3026C199.349 42.3026 201 43.8583 201 46.0238ZM200.376 46.0238C200.376 44.2281 198.999 42.9122 197.329 42.9122C195.678 42.9122 194.302 44.2281 194.302 46.0238C194.302 47.8027 195.678 49.1153 197.329 49.1153C198.999 49.1187 200.376 47.8027 200.376 46.0238ZM197.993 46.4335L199.112 47.6562H198.343L197.28 46.4902H196.636V47.6562H196.012V44.1915H197.553C198.379 44.1915 198.93 44.6346 198.93 45.3208C198.927 45.8972 198.56 46.3036 197.993 46.4335ZM197.55 45.9338C197.989 45.9338 198.283 45.694 198.283 45.3408C198.283 44.9877 197.989 44.7678 197.55 44.7678H196.632V45.9338H197.55Z" fill="white"/>
</g>
</g>
</g>
<g id="Group_26">
<path id="Vector_11" d="M51.4376 68.3511V67.5115H57.6177V68.3511H55.0592V75.8868H54.1579V68.3511H51.4376Z" fill="white"/>
<path id="Vector_12" d="M57.6969 75.8867V69.8968H58.5453V70.9796C58.6444 70.6964 58.7863 70.4698 58.9679 70.2933C59.1495 70.1167 59.3542 69.9868 59.5819 69.9035C59.8097 69.8202 60.0408 69.7802 60.2752 69.7802C60.371 69.7802 60.4634 69.7869 60.5558 69.8002C60.6483 69.8136 60.7209 69.8369 60.7737 69.8669V70.7464C60.711 70.7164 60.6318 70.6931 60.5294 70.6831C60.4271 70.6697 60.3446 70.6664 60.2752 70.6664C60.0639 70.6564 59.8593 70.6697 59.6612 70.713C59.4631 70.7563 59.2815 70.8296 59.1198 70.9396C58.958 71.0462 58.8293 71.1928 58.7335 71.3727C58.6378 71.5526 58.5916 71.7758 58.5916 72.039V75.8834H57.6969V75.8867Z" fill="white"/>
<path id="Vector_13" d="M63.4544 76C63.0681 76 62.7281 75.9301 62.4376 75.7935C62.147 75.6569 61.9192 75.4603 61.7575 75.2071C61.5957 74.954 61.5132 74.6441 61.5132 74.2877C61.5132 73.6247 61.7377 73.1317 62.1866 72.8118C62.6356 72.492 63.3652 72.3188 64.3721 72.2921L65.521 72.2588V71.7591C65.521 71.3693 65.4021 71.0562 65.1677 70.823C64.9333 70.5898 64.5702 70.4732 64.0816 70.4798C63.7152 70.4798 63.3949 70.5665 63.1242 70.7364C62.8535 70.9096 62.6818 71.1828 62.6092 71.5626H61.7938C61.8169 71.1894 61.9225 70.8696 62.1107 70.6031C62.2989 70.3399 62.563 70.1367 62.903 69.9935C63.2431 69.8535 63.6524 69.7836 64.1245 69.7836C64.6131 69.7836 65.0258 69.8569 65.3625 70.0001C65.6992 70.1434 65.9501 70.3599 66.1218 70.6497C66.2935 70.9396 66.3793 71.2927 66.3793 71.7191V75.8901H65.6101L65.5474 74.7374C65.3097 75.2138 65.0093 75.5436 64.6428 75.7269C64.2797 75.9101 63.8835 76 63.4544 76ZM63.7086 75.3237C63.9231 75.3237 64.1344 75.2838 64.349 75.2071C64.5603 75.1305 64.7551 75.0239 64.93 74.8873C65.105 74.7507 65.247 74.6008 65.3559 74.4343C65.4615 74.2677 65.5177 74.0978 65.521 73.9245V72.8585L64.5636 72.8751C64.0618 72.8818 63.6524 72.9318 63.3322 73.0251C63.012 73.1183 62.7743 73.2583 62.6191 73.4515C62.464 73.6414 62.388 73.8946 62.388 74.2011C62.388 74.5509 62.5102 74.8274 62.7545 75.0239C62.9988 75.2238 63.3157 75.3237 63.7086 75.3237Z" fill="white"/>
<path id="Vector_14" d="M70.397 69.7802C70.8064 69.7802 71.1761 69.8569 71.5095 70.0134C71.843 70.1667 72.117 70.3899 72.3349 70.6764C72.5527 70.9629 72.6914 71.3094 72.7541 71.7158H71.9321C71.8925 71.4926 71.8067 71.2894 71.6746 71.1095C71.5392 70.9296 71.3643 70.7897 71.1497 70.6831C70.9318 70.5798 70.6842 70.5265 70.4003 70.5265C69.8622 70.5265 69.4231 70.7197 69.0831 71.1095C68.743 71.4993 68.5747 72.0956 68.5747 72.9018C68.5747 73.6247 68.7298 74.201 69.0369 74.6375C69.3439 75.0705 69.8028 75.2904 70.4102 75.2904C70.6941 75.2904 70.9417 75.2371 71.1596 75.1305C71.3742 75.0239 71.5524 74.8807 71.6845 74.7008C71.8199 74.5209 71.9024 74.3243 71.9387 74.1078H72.7475C72.6914 74.5009 72.5494 74.8407 72.3283 75.1238C72.1071 75.407 71.8298 75.6236 71.4996 75.7768C71.1695 75.9267 70.7998 76.0033 70.3937 76.0033C69.8655 76.0033 69.4 75.8867 68.9939 75.6569C68.5879 75.427 68.2709 75.0805 68.0432 74.6208C67.8154 74.1611 67.7031 73.5914 67.7031 72.9118C67.7031 72.2888 67.8055 71.7458 68.0134 71.276C68.2214 70.8063 68.5218 70.4399 68.9246 70.18C69.3241 69.9135 69.816 69.7802 70.397 69.7802Z" fill="white"/>
<path id="Vector_15" d="M79.0993 75.8867H78.1287L76.2007 72.7652L74.9198 74.0911V75.8867H74.0317V67.2783H74.9198V73.0284L77.8745 69.8935H78.9309L76.7949 72.1455L79.0993 75.8867Z" fill="white"/>
<path id="Vector_16" d="M85.6755 67.3816C86.065 67.3816 86.4282 67.4549 86.7616 67.5981C87.095 67.7414 87.3624 67.9479 87.5671 68.2111C87.7718 68.4743 87.8741 68.7908 87.8741 69.1539C87.8741 69.2938 87.8477 69.4471 87.7949 69.617C87.7421 69.7869 87.6464 69.9701 87.5044 70.1667C87.3624 70.3632 87.1644 70.5698 86.9003 70.7797C86.6395 70.9929 86.2961 71.2094 85.8769 71.4326L87.8411 73.7446C87.9171 73.6447 88.0128 73.4881 88.1284 73.2716C88.2439 73.0584 88.3495 72.7952 88.4453 72.4854C88.541 72.1755 88.5971 71.8257 88.6169 71.4359H89.4852C89.4423 71.849 89.363 72.2222 89.2475 72.5553C89.1319 72.8885 88.99 73.1983 88.8282 73.4815C88.6665 73.7646 88.4915 74.0378 88.3033 74.2943L89.6338 75.8767H88.5839L87.752 74.914C87.3393 75.2704 86.9168 75.5269 86.4843 75.6902C86.0518 75.8534 85.6194 75.9334 85.1869 75.9334C84.662 75.9334 84.2163 75.8401 83.8532 75.6569C83.4867 75.4736 83.2094 75.2205 83.0179 74.894C82.8264 74.5675 82.7307 74.1944 82.7307 73.7646C82.7307 73.4048 82.8 73.0783 82.942 72.7818C83.084 72.4853 83.2985 72.2122 83.5858 71.9623C83.873 71.7125 84.2328 71.4693 84.6719 71.2327C84.4507 70.9995 84.2625 70.7763 84.1074 70.5564C83.9522 70.3366 83.8333 70.1134 83.7508 69.8868C83.6683 69.6603 83.6287 69.4238 83.6287 69.1772C83.6287 68.8408 83.7145 68.5376 83.8895 68.2611C84.0644 67.9879 84.3054 67.7714 84.6125 67.6081C84.9129 67.4615 85.2694 67.3816 85.6755 67.3816ZM85.1308 71.8124C84.7049 72.0489 84.3583 72.3288 84.0876 72.6586C83.8168 72.9884 83.6914 73.3582 83.7046 73.7713C83.7178 74.0611 83.797 74.311 83.9489 74.5275C84.1008 74.7407 84.2988 74.9073 84.5464 75.0272C84.794 75.1472 85.0647 75.2038 85.3586 75.2038C85.7052 75.2038 86.0518 75.1272 86.3919 74.9706C86.7319 74.814 87.0323 74.6108 87.2931 74.3609L85.1308 71.8124ZM85.7052 68.0379C85.3189 68.0412 85.0251 68.1545 84.8237 68.3744C84.6224 68.5942 84.5233 68.8508 84.5233 69.1439C84.5233 69.3538 84.5695 69.557 84.6587 69.7602C84.7478 69.9635 84.8535 70.1467 84.969 70.3066C85.0845 70.4698 85.1869 70.5964 85.2694 70.6897L85.4642 70.9029C85.8967 70.6564 86.2268 70.4332 86.4546 70.2366C86.6824 70.0401 86.8375 69.8568 86.9201 69.6836C87.0026 69.5104 87.0422 69.3405 87.0422 69.1639C87.0422 68.8874 86.9762 68.6642 86.8441 68.4976C86.7121 68.3311 86.5437 68.2111 86.339 68.1378C86.1344 68.0679 85.9231 68.0346 85.7052 68.0379Z" fill="white"/>
<path id="Vector_17" d="M93.1199 68.3511V67.5115H99.2999V68.3511H96.7414V75.8868H95.8401V68.3511H93.1199Z" fill="white"/>
<path id="Vector_18" d="M99.3792 75.8867V69.8968H100.228V70.9796C100.327 70.6964 100.469 70.4698 100.65 70.2933C100.832 70.1167 101.036 69.9868 101.264 69.9035C101.492 69.8202 101.723 69.7802 101.957 69.7802C102.053 69.7802 102.146 69.7869 102.238 69.8002C102.331 69.8136 102.403 69.8369 102.456 69.8669V70.7464C102.393 70.7164 102.314 70.6931 102.212 70.6831C102.109 70.6697 102.027 70.6664 101.957 70.6664C101.746 70.6564 101.542 70.6697 101.343 70.713C101.145 70.7563 100.964 70.8296 100.802 70.9396C100.64 71.0462 100.512 71.1928 100.416 71.3727C100.32 71.5526 100.274 71.7758 100.274 72.039V75.8834H99.3792V75.8867Z" fill="white"/>
<path id="Vector_19" d="M105.137 76C104.75 76 104.41 75.9301 104.12 75.7935C103.829 75.6569 103.601 75.4603 103.44 75.2071C103.278 74.954 103.195 74.6441 103.195 74.2877C103.195 73.6247 103.42 73.1317 103.869 72.8118C104.318 72.492 105.047 72.3188 106.054 72.2921L107.203 72.2588V71.7591C107.203 71.3693 107.084 71.0562 106.85 70.823C106.616 70.5898 106.252 70.4732 105.764 70.4798C105.397 70.4798 105.077 70.5665 104.806 70.7364C104.536 70.9096 104.364 71.1828 104.291 71.5626H103.476C103.499 71.1894 103.605 70.8696 103.793 70.6031C103.981 70.3399 104.245 70.1367 104.585 69.9935C104.925 69.8535 105.335 69.7836 105.807 69.7836C106.295 69.7836 106.708 69.8569 107.045 70.0001C107.381 70.1434 107.632 70.3599 107.804 70.6497C107.976 70.9396 108.062 71.2927 108.062 71.7191V75.8901H107.292L107.23 74.7374C106.992 75.2138 106.692 75.5436 106.325 75.7269C105.962 75.9101 105.566 76 105.137 76ZM105.391 75.3237C105.605 75.3237 105.817 75.2838 106.031 75.2071C106.243 75.1305 106.437 75.0239 106.612 74.8873C106.787 74.7507 106.929 74.6008 107.038 74.4343C107.144 74.2677 107.2 74.0978 107.203 73.9245V72.8585L106.246 72.8751C105.744 72.8818 105.335 72.9318 105.014 73.0251C104.694 73.1183 104.457 73.2583 104.301 73.4515C104.146 73.6414 104.07 73.8946 104.07 74.2011C104.07 74.5509 104.192 74.8274 104.437 75.0239C104.681 75.2238 105.001 75.3237 105.391 75.3237Z" fill="white"/>
<path id="Vector_20" d="M112.079 69.7802C112.489 69.7802 112.858 69.8569 113.192 70.0134C113.525 70.1667 113.799 70.3899 114.017 70.6764C114.235 70.9629 114.374 71.3094 114.436 71.7158H113.614C113.575 71.4926 113.489 71.2894 113.357 71.1095C113.221 70.9296 113.047 70.7897 112.832 70.6831C112.614 70.5798 112.366 70.5265 112.083 70.5265C111.544 70.5265 111.105 70.7197 110.765 71.1095C110.425 71.4993 110.257 72.0956 110.257 72.9018C110.257 73.6247 110.412 74.201 110.719 74.6375C111.026 75.0705 111.485 75.2904 112.092 75.2904C112.376 75.2904 112.624 75.2371 112.842 75.1305C113.056 75.0239 113.235 74.8807 113.367 74.7008C113.502 74.5209 113.585 74.3243 113.621 74.1078H114.43C114.374 74.5009 114.232 74.8407 114.011 75.1238C113.789 75.407 113.512 75.6236 113.182 75.7768C112.852 75.9267 112.482 76.0033 112.076 76.0033C111.548 76.0033 111.082 75.8867 110.676 75.6569C110.27 75.427 109.953 75.0805 109.725 74.6208C109.498 74.1611 109.385 73.5914 109.385 72.9118C109.385 72.2888 109.488 71.7458 109.696 71.276C109.904 70.8063 110.204 70.4399 110.607 70.18C111.01 69.9135 111.498 69.7802 112.079 69.7802Z" fill="white"/>
<path id="Vector_21" d="M116.355 73.0983C116.355 73.5015 116.421 73.8646 116.549 74.1944C116.678 74.5242 116.879 74.7841 117.153 74.9839C117.424 75.1805 117.771 75.2804 118.187 75.2804C118.59 75.2804 118.936 75.1838 119.227 74.9939C119.517 74.804 119.699 74.5309 119.771 74.1811H120.633C120.56 74.5842 120.402 74.9173 120.161 75.1905C119.917 75.4603 119.626 75.6636 119.283 75.8001C118.939 75.9367 118.58 76.0067 118.2 76.0067C117.655 76.0067 117.177 75.8868 116.761 75.6436C116.345 75.4037 116.021 75.0539 115.79 74.5975C115.559 74.1411 115.443 73.5947 115.443 72.9518C115.443 72.3155 115.549 71.7591 115.76 71.2794C115.972 70.803 116.275 70.4332 116.675 70.1733C117.074 69.9135 117.556 69.7836 118.124 69.7836C118.672 69.7836 119.134 69.9035 119.514 70.14C119.894 70.3766 120.181 70.7164 120.382 71.1561C120.58 71.5959 120.679 72.1222 120.679 72.7319V73.1017H116.355V73.0983ZM116.361 72.4554H119.804C119.804 72.0856 119.742 71.7491 119.62 71.4526C119.497 71.1561 119.313 70.9196 119.062 70.7464C118.814 70.5731 118.497 70.4865 118.114 70.4865C117.708 70.4865 117.378 70.5831 117.117 70.7797C116.86 70.9762 116.668 71.2228 116.539 71.5226C116.417 71.8257 116.358 72.1356 116.361 72.4554Z" fill="white"/>
</g>
</g>
<g id="Group_27">
<g id="Group_28">
<g id="Group_29">
<path id="Vector_22" d="M17.038 18.9092C22.2125 18.9092 26.4072 14.6762 26.4072 9.45461C26.4072 4.23297 22.2125 0 17.038 0C11.8636 0 7.66895 4.23297 7.66895 9.45461C7.66895 14.6762 11.8636 18.9092 17.038 18.9092Z" fill="white"/>
</g>
</g>
<g id="Group_30">
<g id="Group_31">
<path id="Vector_23" d="M17.038 28.3971C22.9408 28.3971 27.7409 33.241 27.7409 39.1977C27.7409 45.1543 22.9408 49.9982 17.038 49.9982C11.1353 49.9982 6.33521 45.1543 6.33521 39.1977C6.33521 33.241 11.1353 28.3971 17.038 28.3971ZM17.038 22.0041C7.62932 22.0041 0 29.6997 0 39.1977C0 48.6922 7.62932 56.3912 17.038 56.3912C26.4468 56.3912 34.0761 48.6922 34.0761 39.1977C34.0761 29.6997 26.4468 22.0041 17.038 22.0041Z" fill="white"/>
</g>
</g>
</g>
<g id="Group_32">
<g id="Group_33">
<g id="Group_34">
<path id="Vector_24" d="M51.3156 19.0858H61.4935C67.6339 19.0858 71.3842 22.164 71.3842 27.3611C71.3842 30.0629 70.1891 32.2283 67.8386 33.5575C70.7635 34.8468 72.3317 37.2188 72.3317 40.6701C72.3317 46.2836 68.3338 49.4451 62.1934 49.4451H51.3156V19.0858ZM55.8086 23.2034V31.7286H61.6618C65.2867 31.7286 66.8944 29.8996 66.8944 27.3611C66.8944 24.6992 65.082 23.2034 61.4968 23.2034H55.8086ZM55.8086 35.9295V45.2875H62.1967C65.7819 45.2875 67.8419 43.4152 67.8419 40.5869C67.8419 37.7185 66.1516 35.9295 61.9887 35.9295H55.8086Z" fill="white"/>
</g>
</g>
<g id="Group_35">
<g id="Group_36">
<path id="Vector_25" d="M74.6062 39.131C74.6062 33.0178 79.2214 28.2372 85.2793 28.2372C91.3768 28.2372 95.9128 32.728 95.9128 38.9245V40.4636H78.8121C79.3073 43.6651 81.6545 45.9938 85.2826 45.9938C88.125 45.9938 90.0629 44.6212 90.8453 42.4591H95.586C93.9783 47.0765 90.5581 49.8616 85.243 49.8616C78.7262 49.8582 74.6062 44.9944 74.6062 39.131ZM79.096 36.7191H91.4165C90.634 33.7674 88.4486 32.185 85.3189 32.185C82.3115 32.185 79.9609 34.0573 79.096 36.7191Z" fill="white"/>
</g>
</g>
<g id="Group_37">
<g id="Group_38">
<path id="Vector_26" d="M97.0122 28.6503H100.515V23.7431L104.965 21.2912V28.6503H109.333V32.6414H104.965V40.9167C104.965 44.7012 105.543 45.2409 109.333 45.2409V49.4418H108.672C102.41 49.4418 100.512 47.4463 100.512 40.96V32.6447H97.0089V28.6503H97.0122Z" fill="white"/>
</g>
</g>
<g id="Group_39">
<g id="Group_40">
<path id="Vector_27" d="M110.614 39.0477C110.614 32.9346 115.354 28.2339 121.287 28.2339C127.223 28.2339 131.96 32.9346 131.96 39.0477C131.96 45.0776 127.219 49.8616 121.287 49.8616C115.354 49.8582 110.614 45.0776 110.614 39.0477ZM127.635 39.0477C127.635 35.3865 124.793 32.3949 121.29 32.3949C117.662 32.3949 114.985 35.3898 114.985 39.0477C114.985 42.7057 117.662 45.7006 121.29 45.7006C124.789 45.7006 127.635 42.7057 127.635 39.0477Z" fill="white"/>
</g>
</g>
<g id="Group_41">
<g id="Group_42">
<path id="Vector_28" d="M134.891 28.6503H139.259V31.3521C140.702 29.3966 142.844 28.2339 145.604 28.2339C150.837 28.2339 153.97 31.602 153.97 37.2987V49.4418H149.519V37.6719C149.519 34.2205 147.829 32.0984 144.534 32.0984C141.567 32.0984 139.302 34.3438 139.302 38.005V49.4418H134.891V28.6503Z" fill="white"/>
</g>
</g>
<g id="Group_43">
<g id="Group_44">
<path id="Vector_29" d="M162.124 46.6167V49.4451H157.796V19.0858H162.164V31.4354C163.689 29.4799 166.201 28.2339 169.004 28.2339C174.401 28.2339 179.264 32.3915 179.264 39.0477C179.264 45.6606 174.279 49.8616 169.043 49.8616C166.244 49.8582 163.649 48.6523 162.124 46.6167ZM174.9 39.0044C174.9 35.2199 172.058 32.2683 168.39 32.2683C164.682 32.2683 161.919 35.3465 161.919 39.0044C161.919 42.7456 164.679 45.7839 168.39 45.7839C172.054 45.7839 174.9 42.8322 174.9 39.0044Z" fill="white"/>
</g>
</g>
<g id="Group_45">
<g id="Group_46">
<path id="Vector_30" d="M184.256 19.4589C186.029 19.4589 187.224 20.6649 187.224 22.4539C187.224 24.2428 186.029 25.4488 184.256 25.4488C182.483 25.4488 181.288 24.2428 181.288 22.4539C181.288 20.6649 182.483 19.4589 184.256 19.4589ZM182.028 28.6503H186.478V49.4418H182.028V28.6503Z" fill="white"/>
</g>
</g>
</g>
<g id="Group_47">
<g id="Group_48">
<g id="Group_49">
<path id="Vector_31" d="M201 46.0238C201 48.1725 199.349 49.7283 197.329 49.7283C195.309 49.7283 193.658 48.1725 193.658 46.0238C193.658 43.8583 195.309 42.3026 197.329 42.3026C199.349 42.3026 201 43.8583 201 46.0238ZM200.376 46.0238C200.376 44.2281 198.999 42.9122 197.329 42.9122C195.678 42.9122 194.302 44.2281 194.302 46.0238C194.302 47.8027 195.678 49.1153 197.329 49.1153C198.999 49.1187 200.376 47.8027 200.376 46.0238ZM197.993 46.4335L199.112 47.6562H198.343L197.28 46.4902H196.636V47.6562H196.012V44.1915H197.553C198.379 44.1915 198.93 44.6346 198.93 45.3208C198.927 45.8972 198.56 46.3036 197.993 46.4335ZM197.55 45.9338C197.989 45.9338 198.283 45.694 198.283 45.3408C198.283 44.9877 197.989 44.7678 197.55 44.7678H196.632V45.9338H197.55Z" fill="white"/>
</g>
</g>
</g>
</g>
</g>
<defs>
<clipPath id="clip0">
<rect width="201" height="76" fill="white"/>
</clipPath>
</defs>
</svg>
