<svg width="83" height="136" viewBox="0 0 83 136" fill="none" xmlns="http://www.w3.org/2000/svg">
<path d="M41.2401 45.3712C53.6868 45.3712 63.7768 35.2264 63.7768 22.7122C63.7768 10.198 53.6868 0.0532227 41.2401 0.0532227C28.7934 0.0532227 18.7034 10.198 18.7034 22.7122C18.7034 35.2264 28.7934 45.3712 41.2401 45.3712Z" fill="white"/>
<path d="M41.24 68.1408C55.4518 68.1408 67.0057 79.7574 67.0057 94.0463C67.0057 108.335 55.4518 119.952 41.24 119.952C27.0283 119.952 15.4744 108.335 15.4744 94.0463C15.4744 79.7574 27.0283 68.1408 41.24 68.1408ZM41.24 52.814C18.5935 52.814 0.230225 71.2769 0.230225 94.0463C0.230225 116.816 18.5935 135.279 41.24 135.279C63.8865 135.279 82.2498 116.816 82.2498 94.0463C82.2278 71.2769 63.8865 52.814 41.24 52.814Z" fill="white"/>
</svg>
