<svg width="132" height="14" viewBox="0 0 132 14" fill="none" xmlns="http://www.w3.org/2000/svg">
<g clip-path="url(#clip0)">
<path d="M94.8469 0.405518C91.3411 0.405518 88.8033 3.15003 88.8033 6.86263C88.8033 10.5846 91.5949 13.3197 95.2135 13.3197C97.7418 13.3197 99.5088 12.1825 100.43 10.9982L98.7945 9.43796C98.0802 10.2275 97.0839 11.1298 95.2323 11.1298C93.0705 11.1298 91.3599 9.46615 91.2283 7.38897H100.778C100.806 7.154 100.806 6.96602 100.806 6.86263C100.806 3.19702 98.2963 0.405518 94.8469 0.405518ZM91.4445 5.2836C91.8674 3.67637 93.3149 2.59548 94.9221 2.59548C96.3977 2.59548 97.8264 3.70457 98.1929 5.2836H91.4445ZM81.5003 9.13719L78.0979 0.66869H76.3591L72.9566 9.13719L69.5542 0.66869H66.9695L72.0073 13.066H73.7462L77.2238 4.3625L80.7014 13.066H82.4402L87.4875 0.66869H84.9028L81.5003 9.13719ZM115.149 5.60317C113.908 5.2836 112.931 4.99223 112.931 4.15572C112.931 3.17822 113.955 2.59548 115.177 2.59548C116.183 2.59548 117.076 2.99024 117.837 3.57298L119.134 1.77777C118.156 0.988256 116.841 0.405518 115.017 0.405518C112.799 0.405518 110.43 1.61799 110.43 4.27791C110.43 6.01672 111.774 6.96602 113.278 7.46417C115.102 8.0751 117.151 8.15029 117.151 9.56954C117.151 10.547 116.07 11.1298 114.989 11.1298C113.748 11.1298 112.479 10.6598 111.323 9.75752L110.026 11.5997C111.399 12.7088 113.062 13.3103 115.036 13.3103C117.461 13.3103 119.651 11.8629 119.651 9.51315C119.66 6.97542 117.104 6.10131 115.149 5.60317ZM127.151 5.60317C125.911 5.2836 124.933 4.99223 124.933 4.15572C124.933 3.17822 125.958 2.59548 127.17 2.59548C128.176 2.59548 129.069 2.99024 129.83 3.57298L131.127 1.77777C130.15 0.988256 128.834 0.405518 127.02 0.405518C124.802 0.405518 122.433 1.61799 122.433 4.27791C122.433 6.01672 123.777 6.96602 125.281 7.46417C127.104 8.0751 129.153 8.15029 129.153 9.56954C129.153 10.547 128.072 11.1298 126.991 11.1298C125.751 11.1298 124.482 10.6598 123.326 9.75752L122.038 11.5997C123.41 12.7088 125.074 13.3103 127.048 13.3103C129.473 13.3103 131.663 11.8629 131.663 9.51315C131.653 6.97542 129.097 6.10131 127.151 5.60317ZM104.227 13.066H106.737V0.66869H104.227V13.066ZM39.1484 5.61256H30.6329V0.66869H28.1234V13.066H30.6329V8.1221H39.1484V13.066H41.658V0.66869H39.1484V5.61256ZM59.2717 0.405518C57.4765 0.405518 56.217 1.22323 55.5497 1.85296V0.66869H53.1247V13.066H55.6343V4.54108C56.3768 3.64817 57.5611 2.77407 59.1965 2.77407C60.221 2.77407 61.1703 3.24402 61.753 3.98654C62.2042 4.54108 62.4955 5.2742 62.4955 6.86263V13.0566H65.0051V6.99422C65.0051 4.86064 64.5821 3.59178 63.7926 2.58609C62.7305 1.25143 61.0951 0.405518 59.2717 0.405518ZM46.1413 13.066H48.6508V0.66869H46.1413V13.066Z" fill="black"/>
<path d="M16.76 4.82303C16.3746 5.51856 16.0081 6.37387 16.0081 6.37387H15.9705C15.9705 6.37387 15.6039 5.50916 15.228 4.82303L12.9534 0.790863H11.0078L15.1246 7.86831V13.066H16.8446V7.86831L20.9426 0.790863H18.997L16.76 4.82303Z" fill="black"/>
<path d="M6.96627 6.59945V6.56185C7.90617 6.0731 8.49831 5.1238 8.49831 3.92073C8.49831 1.93754 7.00387 0.790863 4.93609 0.790863H0.640747V13.066H5.03948C7.19185 13.066 8.98706 11.8817 8.98706 9.56953C8.98706 8.19728 8.25394 6.97541 6.96627 6.59945ZM2.36076 2.2853H4.89849C6.08277 2.2853 6.7407 3.01843 6.7407 4.08991C6.7407 5.1708 6.04517 5.95091 4.93609 5.95091H2.36076V2.2853ZM5.12407 11.5715H2.36076V7.37956H5.10527C6.39293 7.37956 7.22945 8.23487 7.22945 9.48494C7.22945 10.735 6.44933 11.5715 5.12407 11.5715Z" fill="black"/>
</g>
<defs>
<clipPath id="clip0">
<rect width="131.013" height="12.9236" fill="white" transform="translate(0.640747 0.405518)"/>
</clipPath>
</defs>
</svg>
