<svg width="46" height="46" viewBox="0 0 46 46" fill="none" xmlns="http://www.w3.org/2000/svg">
<rect y="0.72998" width="45.0172" height="45.0172" rx="22.5086" fill="#F59300"/>
<g clip-path="url(#clip0)">
<path d="M30.9055 19.9628C29.3288 18.3161 27.7816 16.7003 26.2357 15.0858C25.7598 15.5871 25.2704 16.101 24.7971 16.5981C24.1723 15.9456 23.569 15.3169 22.9563 14.6756C22.963 14.6686 22.9952 14.628 23.0314 14.5902C23.5905 14.0049 24.1509 13.4196 24.7113 12.8357C25.6016 11.9073 26.9047 11.9003 27.795 12.8273C29.5513 14.6574 31.3064 16.4903 33.0587 18.3246C33.9342 19.2403 33.9288 20.6083 33.056 21.5199C31.5799 23.0615 30.1024 24.6045 28.6262 26.1462C27.8003 27.0087 26.4677 27.0143 25.6351 26.1602C25.5211 26.044 25.4058 25.9291 25.2972 25.8213C27.1769 23.8568 29.0459 21.9035 30.9055 19.9628Z" fill="black"/>
<path d="M20.7362 21.4878C18.8538 23.4537 16.9835 25.407 15.1253 27.3477C16.6765 28.9677 18.2237 30.5836 19.7776 32.2064C20.2589 31.7024 20.7563 31.1801 21.2443 30.669C21.8571 31.3103 22.4577 31.9362 23.0691 32.5747C23.049 32.5971 23.0168 32.6391 22.9819 32.6755C22.4001 33.2846 21.8168 33.8909 21.235 34.5C20.8287 34.9271 20.3246 35.1343 19.7615 35.1357C19.1917 35.1371 18.6862 34.9257 18.2746 34.4944C16.4982 32.6377 14.7217 30.7824 12.9439 28.9257C12.1046 28.0478 12.0858 26.6728 12.9211 25.7934C14.4026 24.2336 15.8935 22.6835 17.383 21.1307C17.7786 20.7176 18.2652 20.495 18.819 20.4782C19.3915 20.46 19.9009 20.6588 20.3259 21.0705C20.46 21.2049 20.5901 21.3407 20.7362 21.4878Z" fill="black"/>
<path d="M14.4453 23.7055C14.4118 23.6719 14.3756 23.6397 14.3421 23.6047C13.7749 23.0124 13.2065 22.4201 12.6393 21.8278C12.1888 21.3545 11.969 20.7804 12.0038 20.1167C12.032 19.5748 12.2291 19.0931 12.6005 18.7053C14.3903 16.8318 16.1815 14.9583 17.9781 13.0904C18.7732 12.2615 20.1112 12.2545 20.9076 13.0806C22.424 14.6531 23.9336 16.2297 25.4393 17.8133C26.245 18.6619 26.2142 20.0285 25.3856 20.926C25.2864 21.0339 25.1926 21.1445 25.0518 21.3041C24.9834 21.2047 24.9418 21.1235 24.8829 21.0619C23.1185 19.2164 21.3527 17.3723 19.587 15.5282C19.4368 15.3714 19.4382 15.3714 19.284 15.5324C17.8293 17.0502 16.3746 18.5695 14.9199 20.0873C14.8757 20.1335 14.814 20.1629 14.7523 20.2063C15.2886 20.7636 15.7874 21.2803 16.2781 21.7914C15.6546 22.4425 15.0553 23.0684 14.4453 23.7055Z" fill="black"/>
<path d="M26.5804 31.9123C26.6434 31.8506 26.6903 31.8072 26.7346 31.761C28.196 30.2348 29.6574 28.7071 31.1228 27.1837C31.2394 27.0619 31.2327 26.9947 31.1201 26.8799C30.7045 26.4584 30.2982 26.0271 29.8893 25.5987C29.8491 25.5567 29.8102 25.5118 29.7861 25.4852C30.3867 24.8579 30.978 24.2405 31.5813 23.6104C31.6001 23.6286 31.643 23.6692 31.6832 23.7112C32.2396 24.2923 32.796 24.8719 33.3511 25.453C34.2158 26.3576 34.2158 27.706 33.3524 28.6077C31.5907 30.449 29.8276 32.2889 28.0659 34.1288C27.2092 35.0235 25.9181 35.0221 25.0587 34.1246C23.5785 32.5788 22.097 31.0329 20.6168 29.4857C19.7923 28.6245 19.7936 27.2537 20.6195 26.3912C20.6906 26.317 20.7683 26.247 20.8327 26.1658C20.9212 26.0551 20.9963 26.0649 21.0754 26.1714C21.0915 26.1938 21.1129 26.2106 21.1317 26.2302C22.8934 28.0701 24.6565 29.9113 26.4195 31.7512C26.4664 31.8058 26.5187 31.852 26.5804 31.9123Z" fill="black"/>
<path d="M16.7527 26.1477C18.1698 24.6662 19.5615 23.2128 20.9411 21.772C21.5431 22.3951 22.1518 23.0238 22.7806 23.6763C22.731 23.7183 22.6693 23.7631 22.617 23.8177C21.7938 24.676 20.9693 25.5316 20.1501 26.3941C19.7412 26.824 19.2572 27.0872 18.6766 27.1138C18.0653 27.1418 17.5357 26.9234 17.0919 26.4795C16.9833 26.3675 16.8693 26.2597 16.7527 26.1477Z" fill="black"/>
<path d="M20.5941 17.1133C22.0112 18.5933 23.4096 20.0537 24.8013 21.5072C24.2087 22.1261 23.6054 22.7562 22.9645 23.4255C22.9417 23.3849 22.9189 23.3247 22.8787 23.2812C22.0354 22.3977 21.1907 21.5156 20.346 20.6334C19.4437 19.6911 19.4464 18.3357 20.3487 17.3919C20.4372 17.2981 20.519 17.1973 20.5941 17.1133Z" fill="black"/>
<path d="M25.4138 30.152C23.9993 28.6748 22.6036 27.2171 21.2119 25.7637C21.8005 25.149 22.4052 24.5175 22.9937 23.9028C23.9416 24.8802 24.9284 25.8281 25.8334 26.8545C26.5976 27.7212 26.4944 29.0052 25.6966 29.8398C25.5961 29.9448 25.5009 30.0554 25.4138 30.152Z" fill="black"/>
<path d="M29.219 21.1067C27.8031 22.5868 26.4182 24.0318 25.0439 25.467C24.4701 24.8677 23.8815 24.253 23.2795 23.6243C23.3131 23.5865 23.3573 23.5333 23.4042 23.4843C24.261 22.5896 25.1163 21.6948 25.9731 20.8015C26.756 19.9838 28.0632 19.9712 28.869 20.7721C28.9883 20.8897 29.1117 21.0031 29.219 21.1067Z" fill="black"/>
<path d="M32.3093 34.2855C31.773 34.2841 31.3788 33.8682 31.3801 33.3039C31.3815 32.7537 31.7917 32.3252 32.32 32.3252C32.8536 32.3252 33.2504 32.7565 33.2598 33.3236C33.2665 33.8248 32.8241 34.3261 32.3093 34.2855ZM31.5021 33.3137C31.5021 33.8066 31.8574 34.1833 32.3213 34.1819C32.7812 34.1805 33.1378 33.7968 33.1365 33.3067C33.1351 32.8097 32.7839 32.4414 32.3146 32.4442C31.8413 32.4456 31.5021 32.8097 31.5021 33.3137Z" fill="black"/>
<path d="M31.9954 32.7524C32.163 32.7524 32.3198 32.7496 32.478 32.7538C32.6175 32.7566 32.71 32.8336 32.7368 32.9764C32.7636 33.1178 32.7301 33.2411 32.5987 33.3153C32.5665 33.3335 32.533 33.3503 32.474 33.3797C32.5759 33.5435 32.6738 33.7031 32.7716 33.8628C32.7649 33.874 32.7582 33.8852 32.7515 33.8964C32.7059 33.8684 32.647 33.8516 32.6175 33.8109C32.5491 33.7199 32.4861 33.6219 32.4378 33.5169C32.3708 33.3727 32.2729 33.3251 32.1294 33.3713C32.0383 33.5239 32.1831 33.7437 32.0463 33.8852C32.0302 33.881 32.0128 33.8782 31.9967 33.874C31.9954 33.5057 31.9954 33.1374 31.9954 32.7524ZM32.1093 33.2565C32.2273 33.2565 32.3279 33.2621 32.4284 33.2551C32.541 33.2481 32.6215 33.1963 32.6255 33.0632C32.6295 32.9344 32.5638 32.863 32.4485 32.8518C32.3399 32.842 32.2286 32.8504 32.1107 32.8504C32.1093 32.9876 32.1093 33.1122 32.1093 33.2565Z" fill="black"/>
</g>
<defs>
<clipPath id="clip0">
<rect width="22" height="23" fill="white" transform="translate(12 12.1357)"/>
</clipPath>
</defs>
</svg>
