<svg width="46" height="46" viewBox="0 0 46 46" fill="none" xmlns="http://www.w3.org/2000/svg">
<rect y="0.72998" width="45.0172" height="45.0172" rx="22.5086" fill="#F59300"/>
<path d="M30.8397 21.7474L30.9092 22.0978L31.2632 22.1456C32.3696 22.295 33.3777 22.8594 34.0835 23.7244C34.7893 24.5893 35.14 25.6902 35.0645 26.804C34.9889 27.9178 34.4929 28.9613 33.6768 29.723C32.8607 30.4848 31.7856 30.9079 30.6692 30.9066H30.6686L15.1518 30.9066C15.1516 30.9066 15.1514 30.9066 15.1512 30.9066C14.4414 30.9054 13.7394 30.7594 13.088 30.4776C12.4364 30.1956 11.8493 29.7837 11.3625 29.2669C10.8757 28.7501 10.4995 28.1394 10.2569 27.4722L9.78697 27.6431L10.2569 27.4722C10.0143 26.805 9.91044 26.0953 9.95168 25.3865C9.99293 24.6778 10.1784 23.9849 10.4967 23.3503C10.8151 22.7157 11.2596 22.1528 11.803 21.696C12.3465 21.2392 12.9775 20.8981 13.6573 20.6936C14.3372 20.4892 15.0517 20.4256 15.7569 20.5069L16.1264 20.5494L16.2734 20.2078C16.9204 18.7046 18.0314 17.4477 19.4438 16.6211C20.8562 15.7944 22.4961 15.4413 24.1236 15.6133C25.7511 15.7853 27.2808 16.4735 28.4892 17.5771C29.6976 18.6808 30.5213 20.1421 30.8397 21.7474Z" stroke="black"/>
</svg>
