<svg width="463" height="455" viewBox="0 0 463 455" fill="none" xmlns="http://www.w3.org/2000/svg">
<g clip-path="url(#clip0)">
<path d="M361.285 362.293C360.116 360.544 358.542 359.004 356.519 357.837L142.689 234.527C127.897 226.005 109.673 226.005 94.896 234.557L8.42257 284.551C3.17721 287.586 0.824299 293.102 1.33385 298.38C-0.029945 308.516 2.42788 320.91 8.43756 324.364L222.268 447.659C237.06 456.181 255.284 456.181 270.061 447.63L356.534 397.635C365.077 392.702 367.624 370.874 361.285 362.293Z" fill="white"/>
<path d="M246.142 455C237.719 455 229.297 452.832 221.789 448.497L7.95795 325.201C2.09814 321.822 0 311.656 0 303.986C0 296.481 1.93329 287.346 7.40344 284.192L8.37758 285.866C4.46605 288.124 1.94827 295.24 1.94827 303.986C1.94827 313.255 4.76578 321.104 8.93209 323.511L222.763 446.807C237.21 455.135 255.134 455.12 269.566 446.777L356.04 396.783C360.566 394.167 363.848 385.481 363.848 376.107C363.848 368.467 361.69 362.681 358.093 360.603L359.067 358.929C363.278 361.351 365.796 367.779 365.796 376.122C365.796 384.449 363.053 394.989 357.014 398.473L270.54 448.467C263.032 452.832 254.58 455 246.142 455Z" fill="black"/>
<path d="M246.142 440.05C237.719 440.05 229.297 437.882 221.789 433.546L7.95787 310.25C3.14713 307.485 0.284668 302.521 0.284668 296.974C0.284668 291.428 3.14713 286.479 7.94289 283.698L94.4163 233.704L94.9109 234.542L94.4163 233.704C109.448 225.018 128.136 225.003 143.183 233.675L357.014 356.97C361.824 359.736 364.687 364.7 364.687 370.246C364.687 375.793 361.824 380.741 357.029 383.522L270.555 433.516C263.032 437.882 254.579 440.05 246.142 440.05ZM95.3904 235.394L8.91702 285.388C4.72074 287.81 2.21796 292.145 2.21796 296.974C2.21796 301.818 4.72074 306.139 8.93201 308.561L222.763 431.857C237.21 440.184 255.134 440.169 269.566 431.827L356.04 381.833C360.236 379.411 362.739 375.075 362.739 370.231C362.739 365.387 360.236 361.067 356.04 358.645L142.209 235.364C127.762 227.037 109.823 227.051 95.3904 235.394Z" fill="black"/>
<path d="M462.026 30.0203V202.727V201.008C462.026 216.736 439.696 229.473 412.15 229.473C384.604 229.473 362.274 216.721 362.274 201.008V202.727V30.0203" fill="white"/>
<path d="M412.165 230.46C385.129 230.46 362.934 218.171 361.405 202.727H361.315V30.0203H363.263V201.008C363.263 216.168 385.204 228.502 412.165 228.502C439.126 228.502 461.067 216.168 461.067 201.008V30.0203H463.015V202.727H462.925C461.382 218.171 439.201 230.46 412.165 230.46Z" fill="black"/>
<path d="M412.165 57.9029C439.711 57.9029 462.041 45.1584 462.041 29.4373C462.041 13.7163 439.711 0.971802 412.165 0.971802C384.619 0.971802 362.289 13.7163 362.289 29.4373C362.289 45.1584 384.619 57.9029 412.165 57.9029Z" fill="white"/>
<path d="M412.165 58.8896C384.125 58.8896 361.315 45.6734 361.315 29.4373C361.315 13.2012 384.125 0 412.165 0C440.205 0 463.015 13.2012 463.015 29.4373C463.015 45.6734 440.19 58.8896 412.165 58.8896ZM412.165 1.94355C385.204 1.94355 363.263 14.2776 363.263 29.4373C363.263 44.597 385.204 56.9311 412.165 56.9311C439.126 56.9311 461.067 44.597 461.067 29.4373C461.067 14.2776 439.126 1.94355 412.165 1.94355Z" fill="black"/>
<path d="M347.377 78.0559V194.714V192.994C347.377 208.722 325.047 221.46 297.502 221.46C269.956 221.46 247.626 208.707 247.626 192.994V194.714V78.0559" fill="white"/>
<path d="M297.502 222.447C270.466 222.447 248.285 210.158 246.742 194.714H246.652V78.0559H248.6V193.009C248.6 208.169 270.54 220.503 297.502 220.503C324.463 220.503 346.403 208.169 346.403 193.009V78.0559H348.352V194.729H348.262C346.718 210.157 324.538 222.447 297.502 222.447Z" fill="black"/>
<path d="M297.502 105.953C325.047 105.953 347.377 93.2089 347.377 77.4879C347.377 61.7668 325.047 49.0223 297.502 49.0223C269.956 49.0223 247.626 61.7668 247.626 77.4879C247.626 93.2089 269.956 105.953 297.502 105.953Z" fill="white"/>
<path d="M297.502 106.925C269.461 106.925 246.652 93.709 246.652 77.4729C246.652 61.2368 269.461 48.0356 297.502 48.0356C325.542 48.0356 348.352 61.2368 348.352 77.4729C348.352 93.709 325.542 106.925 297.502 106.925ZM297.502 49.9791C270.54 49.9791 248.6 62.3132 248.6 77.4729C248.6 92.6326 270.54 104.967 297.502 104.967C324.463 104.967 346.403 92.6326 346.403 77.4729C346.403 62.3132 324.463 49.9791 297.502 49.9791Z" fill="black"/>
<path d="M410.442 171.84V262.2V261.632C410.442 277.36 388.111 290.097 360.566 290.097C333.02 290.097 310.69 277.345 310.69 261.632V262.2V171.84" fill="white"/>
<path d="M360.566 291.069C332.855 291.069 310.255 278.167 309.731 262.2H309.716V171.84H311.664V261.632C311.664 276.791 333.605 289.126 360.566 289.126C387.527 289.126 409.467 276.791 409.467 261.632V171.84H411.416L411.401 262.2C410.876 278.182 388.276 291.069 360.566 291.069Z" fill="#F59300"/>
<path d="M360.566 199.737C388.111 199.737 410.442 186.993 410.442 171.272C410.442 155.551 388.111 142.806 360.566 142.806C333.02 142.806 310.69 155.551 310.69 171.272C310.69 186.993 333.02 199.737 360.566 199.737Z" fill="white"/>
<path d="M360.566 200.709C332.526 200.709 309.716 187.508 309.716 171.272C309.716 155.035 332.526 141.819 360.566 141.819C388.606 141.819 411.416 155.035 411.416 171.272C411.416 187.508 388.606 200.709 360.566 200.709ZM360.566 143.778C333.605 143.778 311.664 156.112 311.664 171.272C311.664 186.431 333.605 198.765 360.566 198.765C387.527 198.765 409.467 186.431 409.467 171.272C409.467 156.112 387.527 143.778 360.566 143.778Z" fill="#F59300"/>
<path d="M182.478 371.263C145.161 371.263 114.813 353.337 114.813 331.286C114.813 309.234 145.161 291.308 182.478 291.308C219.795 291.308 250.144 309.234 250.144 331.286C250.144 353.337 219.795 371.263 182.478 371.263ZM182.478 293.267C146.241 293.267 116.762 310.325 116.762 331.301C116.762 352.276 146.241 369.334 182.478 369.334C218.716 369.334 248.195 352.276 248.195 331.301C248.195 310.325 218.716 293.267 182.478 293.267Z" fill="#F59300"/>
<path d="M182.478 338.312C189.1 338.312 194.468 335.173 194.468 331.301C194.468 327.428 189.1 324.289 182.478 324.289C175.857 324.289 170.489 327.428 170.489 331.301C170.489 335.173 175.857 338.312 182.478 338.312Z" fill="#F59300"/>
<path d="M252.916 331.301H245.423C245.423 311.865 217.188 296.033 182.478 296.033C147.769 296.033 119.534 311.85 119.534 331.301H112.041C112.041 307.335 142.988 288.557 182.478 288.557C221.968 288.557 252.916 307.335 252.916 331.301Z" fill="#F59300"/>
<path d="M360.071 244.663C365.865 244.663 370.562 239.978 370.562 234.198C370.562 228.418 365.865 223.733 360.071 223.733C354.277 223.733 349.58 228.418 349.58 234.198C349.58 239.978 354.277 244.663 360.071 244.663Z" fill="#F59300"/>
<path d="M185.26 331.675L182.001 333.519L182.962 335.21L186.221 333.365L185.26 331.675Z" fill="#F59300"/>
<path d="M192.564 329.761L191.605 328.071L197.975 324.468L198.934 326.158L192.564 329.761ZM205.288 322.569L204.329 320.88L210.698 317.277L211.657 318.966L205.288 322.569ZM218.027 315.363L217.068 313.674L223.437 310.071L224.396 311.76L218.027 315.363ZM230.751 308.157L229.791 306.468L236.161 302.865L237.12 304.554L230.751 308.157ZM243.489 300.951L242.53 299.262L248.899 295.659L249.859 297.348L243.489 300.951ZM256.213 293.76L255.254 292.071L261.623 288.468L262.582 290.157L256.213 293.76ZM268.937 286.554L267.978 284.865L274.347 281.262L275.306 282.951L268.937 286.554ZM281.675 279.348L280.716 277.659L287.086 274.055L288.045 275.745L281.675 279.348ZM294.399 272.157L293.44 270.467L299.809 266.864L300.769 268.554L294.399 272.157ZM307.123 264.951L306.164 263.261L312.533 259.658L313.492 261.348L307.123 264.951ZM319.862 257.745L318.902 256.055L325.272 252.452L326.231 254.142L319.862 257.745ZM332.585 250.539L331.626 248.849L337.996 245.246L338.955 246.935L332.585 250.539ZM345.309 243.347L344.35 241.658L350.719 238.055L351.678 239.744L345.309 243.347Z" fill="#F59300"/>
<path d="M360.358 232.61L357.098 234.452L358.058 236.143L361.318 234.301L360.358 232.61Z" fill="#F59300"/>
</g>
<defs>
<clipPath id="clip0">
<rect width="463" height="455" fill="white"/>
</clipPath>
</defs>
</svg>
