<svg width="41" height="41" viewBox="0 0 41 41" fill="none" xmlns="http://www.w3.org/2000/svg">
<path fill-rule="evenodd" clip-rule="evenodd" d="M14.9061 7.48361H26.3347C27.345 7.48361 28.314 7.88497 29.0284 8.5994C29.7428 9.31382 30.1442 10.2828 30.1442 11.2931V30.3408C30.1442 31.3511 29.7428 32.3201 29.0284 33.0345C28.314 33.7489 27.345 34.1503 26.3347 34.1503H14.9061C13.8957 34.1503 12.9268 33.7489 12.2123 33.0345C11.4979 32.3201 11.0966 31.3511 11.0966 30.3408V11.2931C11.0966 10.2828 11.4979 9.31382 12.2123 8.5994C12.9268 7.88497 13.8957 7.48361 14.9061 7.48361V7.48361Z" stroke="#F59300" stroke-linecap="round" stroke-linejoin="round"/>
<path d="M20.6203 30.3407C21.6723 30.3407 22.5251 29.488 22.5251 28.436C22.5251 27.384 21.6723 26.5312 20.6203 26.5312C19.5684 26.5312 18.7156 27.384 18.7156 28.436C18.7156 29.488 19.5684 30.3407 20.6203 30.3407Z" fill="#F59300"/>
</svg>
