<svg width="36" height="36" viewBox="0 0 36 36" fill="none" xmlns="http://www.w3.org/2000/svg">
<path d="M32.96 8.58504C27.68 0.445043 16.9 -1.97496 8.54 3.08504C0.400003 8.14504 -2.24 19.145 3.04 27.285L3.48 27.945L1.72 34.545L8.32 32.785L8.98 33.225C11.84 34.765 14.92 35.645 18 35.645C21.3 35.645 24.6 34.765 27.46 33.005C35.6 27.725 38.02 16.945 32.96 8.58504ZM28.34 25.525C27.46 26.845 26.36 27.725 24.82 27.945C23.94 27.945 22.84 28.385 18.44 26.625C14.7 24.865 11.62 22.005 9.42 18.705C8.1 17.165 7.44 15.185 7.22 13.205C7.22 11.445 7.88 9.90504 8.98 8.80504C9.42 8.36504 9.86 8.14504 10.3 8.14504H11.4C11.84 8.14504 12.28 8.14504 12.5 9.02504C12.94 10.125 14.04 12.765 14.04 12.985C14.26 13.205 14.26 13.645 14.04 13.865C14.26 14.305 14.04 14.745 13.82 14.965C13.6 15.185 13.38 15.625 13.16 15.845C12.72 16.065 12.5 16.505 12.72 16.945C13.6 18.265 14.7 19.585 15.8 20.685C17.12 21.785 18.44 22.665 19.98 23.325C20.42 23.545 20.86 23.545 21.08 23.105C21.3 22.665 22.4 21.565 22.84 21.125C23.28 20.685 23.5 20.685 23.94 20.905L27.46 22.665C27.9 22.885 28.34 23.105 28.56 23.325C28.78 23.985 28.78 24.865 28.34 25.525Z" fill="white"/>
</svg>
